<svg xmlns="http://www.w3.org/2000/svg" viewBox="0 0 512 512" width="512" height="512">
  <!-- Android 13+ themed-icon monochrome layer: single-color silhouette on transparent background.
       The system applies its own tint, so only the alpha/shape (not the fill color) matters. -->

  <path d="M256,138 C232,142 192,154 166,174 L166,362 C194,346 228,338 256,338 Z" fill="#ffffff" opacity="0.97"/>
  <path d="M256,138 C280,142 320,154 346,174 L346,362 C318,346 284,338 256,338 Z" fill="#ffffff" opacity="0.85"/>

  <rect x="252" y="136" width="8" height="204" rx="4" fill="#ffffff" opacity="0.6"/>

  <line x1="192" y1="218" x2="244" y2="212" stroke="#ffffff" stroke-width="3" stroke-linecap="round" opacity="0.5"/>
  <line x1="189" y1="238" x2="244" y2="232" stroke="#ffffff" stroke-width="3" stroke-linecap="round" opacity="0.5"/>
  <line x1="190" y1="258" x2="244" y2="252" stroke="#ffffff" stroke-width="3" stroke-linecap="round" opacity="0.5"/>
  <line x1="191" y1="278" x2="243" y2="272" stroke="#ffffff" stroke-width="3" stroke-linecap="round" opacity="0.35"/>
  <line x1="192" y1="298" x2="238" y2="293" stroke="#ffffff" stroke-width="3" stroke-linecap="round" opacity="0.25"/>

  <line x1="268" y1="212" x2="320" y2="218" stroke="#ffffff" stroke-width="3" stroke-linecap="round" opacity="0.5"/>
  <line x1="268" y1="232" x2="323" y2="238" stroke="#ffffff" stroke-width="3" stroke-linecap="round" opacity="0.5"/>
  <line x1="268" y1="252" x2="322" y2="258" stroke="#ffffff" stroke-width="3" stroke-linecap="round" opacity="0.5"/>
  <line x1="269" y1="272" x2="321" y2="278" stroke="#ffffff" stroke-width="3" stroke-linecap="round" opacity="0.35"/>
  <line x1="270" y1="293" x2="316" y2="298" stroke="#ffffff" stroke-width="3" stroke-linecap="round" opacity="0.25"/>

  <circle cx="256" cy="148" r="38" fill="#ffffff" opacity="0.9"/>
  <circle cx="256" cy="148" r="33" fill="none" stroke="#000000" stroke-width="2.2" opacity="0.35"/>
  <line x1="256" y1="118" x2="256" y2="123" stroke="#000000" stroke-width="2" stroke-linecap="round" opacity="0.3"/>
  <line x1="286" y1="148" x2="281" y2="148" stroke="#000000" stroke-width="2" stroke-linecap="round" opacity="0.3"/>
  <line x1="256" y1="178" x2="256" y2="173" stroke="#000000" stroke-width="2" stroke-linecap="round" opacity="0.3"/>
  <line x1="226" y1="148" x2="231" y2="148" stroke="#000000" stroke-width="2" stroke-linecap="round" opacity="0.3"/>
  <line x1="256" y1="148" x2="256" y2="130" stroke="#000000" stroke-width="2.8" stroke-linecap="round" opacity="0.5"/>
  <line x1="256" y1="148" x2="271" y2="156" stroke="#000000" stroke-width="2.2" stroke-linecap="round" opacity="0.5"/>
  <circle cx="256" cy="148" r="3.5" fill="#000000" opacity="0.5"/>
</svg>
